<svg id="Capa_1" enable-background="new 0 0 512.527 512.527" height="512" viewBox="0 0 512.527 512.527" width="512" xmlns="http://www.w3.org/2000/svg"><path d="m450.833 274.806c0-5.322-2.074-10.326-5.838-14.09l-27.788-27.78c-7.769-7.767-20.409-7.767-28.177.001l-27.175 27.175c-7.576 7.577-8.014 20.291-.987 28.372.014.017.028.033.043.049 3.563 4.072 8.455 6.413 13.773 6.59 3.286.107 6.464-.617 9.315-2.089v19.594c0 10.987 8.939 19.926 19.926 19.926s19.926-8.938 19.926-19.926v-19.188c7.104 2.68 15.438 1.161 21.145-4.544 3.765-3.763 5.837-8.767 5.837-14.09zm-16.442 3.484c-1.921 1.92-5.047 1.92-6.966 0l-.733-.733c-2.999-3-7.47-3.889-11.388-2.267-3.919 1.623-6.451 5.413-6.451 9.654v27.683c0 2.716-2.21 4.926-4.926 4.926s-4.926-2.21-4.926-4.926v-29.286c0-4.241-2.532-8.031-6.451-9.654-1.3-.538-2.661-.8-4.009-.8-2.714 0-5.375 1.062-7.377 3.065l-2.905 2.904c-.859.859-1.96 1.293-3.074 1.273-1.115-.037-2.166-.553-2.963-1.452-.007-.008-.015-.017-.022-.024-1.907-2.18-1.783-5.888.265-7.936l27.175-27.175c1.919-1.92 5.044-1.921 6.965 0l27.788 27.78c.931.931 1.443 2.168 1.443 3.483-.003 1.318-.515 2.555-1.445 3.485z"/><path d="m500.027 463.425h-18.024v-62.565c0-8.722-7.096-15.817-15.817-15.817h-11.767v-52.058c13.974-13.433 22.697-32.29 22.697-53.158 0-36.628-26.833-67.093-61.872-72.804v-25.268c4.11-4.021 6.667-9.624 6.667-15.814v-83.941c0-12.207-9.931-22.139-22.138-22.139h-55.219v-15.419h2.402c8.215 0 14.898-6.683 14.898-14.897v-14.461c0-8.215-6.683-14.897-14.898-14.897h-181.386c-8.215 0-14.898 6.683-14.898 14.897v14.461c0 8.215 6.683 14.897 14.898 14.897h2.402v15.419h-9.8c-4.142 0-7.5 3.357-7.5 7.5s3.358 7.5 7.5 7.5h241.601c3.936 0 7.138 3.202 7.138 7.139v83.94c0 3.936-3.202 7.138-7.138 7.138h-112.023v-7.478c0-6.988-5.685-12.673-12.673-12.673h-37.626c-6.988 0-12.673 5.685-12.673 12.673v7.479h-112.024c-3.936 0-7.138-3.202-7.138-7.138v-83.941c0-3.937 3.202-7.139 7.138-7.139h11.343c4.142 0 7.5-3.357 7.5-7.5s-3.358-7.5-7.5-7.5h-11.343c-12.207 0-22.138 9.932-22.138 22.139v83.94c0 6.191 2.558 11.793 6.668 15.815v86.18c0 12.584 10.237 22.821 22.821 22.821h210.27c.807 5.409 2.21 10.625 4.128 15.587h-19.489c-4.142 0-7.5 3.357-7.5 7.5s3.358 7.5 7.5 7.5h27.379c13.295 19.46 35.65 32.261 60.945 32.261 13.101 0 25.405-3.448 36.081-9.461v40.899h-366.31v-62.882c0-.451.367-.817.817-.817h207.337c4.142 0 7.5-3.357 7.5-7.5s-3.358-7.5-7.5-7.5h-207.337c-8.722 0-15.817 7.096-15.817 15.817v62.882h-11.767c-8.722 0-15.817 7.096-15.817 15.817v62.564h-18.025c-6.893 0-12.5 5.607-12.5 12.5v23.916c0 6.893 5.607 12.5 12.5 12.5h487.527c6.893 0 12.5-5.607 12.5-12.5v-23.916c0-6.891-5.607-12.498-12.5-12.498zm-334.355-433.983v-14.255h181.183v14.256h-181.183zm28.124 30.419h-10.824v-15.419h10.824zm109.935 0h-94.935v-15.419h94.935zm25.824 0h-10.824v-15.419h10.824zm-89.777 108.066h32.972v25.303h-32.972zm89.9 107.83h-209.573c-4.313 0-7.821-3.509-7.821-7.821v-79.869c.157.003.312.012.47.012h112.024v7.479c0 6.987 5.685 12.672 12.673 12.672h37.626c6.988 0 12.673-5.685 12.673-12.672v-7.479h112.024c.158 0 .313-.009.47-.012v18.061c-37.898 1.572-68.502 31.857-70.566 69.629zm73.659 62.847c-32.41 0-58.777-26.367-58.777-58.777s26.367-58.778 58.777-58.778 58.778 26.368 58.778 58.778-26.367 58.777-58.778 58.777zm-357.813 62.256c0-.451.367-.817.817-.817h19.267 381.31 19.267c.451 0 .817.366.817.817v62.564h-421.478zm452.003 96.481h-482.527v-18.916h482.527z"/></svg>